<?xml version="1.0" encoding="UTF-8"?>
<svg xmlns="http://www.w3.org/2000/svg" version="1.1" viewBox="0 0 512 370.23">
  <!-- Generator: Adobe Illustrator 30.1.0, SVG Export Plug-In . SVG Version: 2.1.1 Build 136)  -->
  <defs>
    <style>
      .st0 {
        fill: #fff;
      }
    </style>
  </defs>
  <g id="Layer_1" image-rendering="optimizeQuality" shape-rendering="geometricPrecision" text-rendering="geometricPrecision">
    <path class="st0" d="M29.37,0h453.26c16.16,0,29.37,13.21,29.37,29.37v311.49c0,16.57-12.68,29.37-29.37,29.37H29.37c-16.16,0-29.37-13.21-29.37-29.37V29.37C0,13.19,13.19,0,29.37,0ZM22.53,328.51l158.85-159.25L22.53,39.74v288.77h0ZM198.87,183.52L35.1,347.7h440.43l-156.51-164.15-51.6,43.96h0c-4.05,3.46-10.11,3.65-14.39.17l-54.16-44.16h0ZM336.15,168.95l153.32,160.82V38.33l-153.32,130.62h0ZM36.95,22.53l223,181.82L473.38,22.53H36.95Z"/>
    <path class="st0" d="M45.71,14.03h418.9c14.94,0,27.14,12.21,27.14,27.14v287.88c0,15.31-11.72,27.14-27.14,27.14H45.71c-14.94,0-27.14-12.21-27.14-27.14V41.18c0-14.95,12.19-27.14,27.14-27.14ZM39.39,317.64l146.81-147.18L39.39,50.76v266.88h0ZM202.37,183.64L51.01,335.38h407.05l-144.65-151.71-47.69,40.63h0c-3.74,3.2-9.34,3.37-13.3.16l-50.05-40.81h0ZM329.24,170.18l141.7,148.63V49.46l-141.7,120.72h0ZM52.72,34.85l206.1,168.04L456.07,34.85H52.72Z"/>
    <path class="st0" d="M47.05,27.38h418.9c14.94,0,27.14,12.21,27.14,27.14v287.88c0,15.31-11.72,27.14-27.14,27.14H47.05c-14.94,0-27.14-12.21-27.14-27.14V54.53c0-14.95,12.19-27.14,27.14-27.14ZM40.73,330.99l146.81-147.18L40.73,64.11v266.88h0ZM203.7,196.99L52.34,348.73h407.05l-144.65-151.71-47.69,40.63h0c-3.74,3.2-9.34,3.37-13.3.16l-50.05-40.81h0ZM330.57,183.53l141.7,148.63V62.81l-141.7,120.72h0ZM54.05,48.2l206.1,168.04L457.4,48.2H54.05Z"/>
    <path class="st0" d="M47.05,8.15h418.9c14.94,0,27.14,12.21,27.14,27.14v287.88c0,15.31-11.72,27.14-27.14,27.14H47.05c-14.94,0-27.14-12.21-27.14-27.14V35.29c0-14.95,12.19-27.14,27.14-27.14ZM40.73,311.76l146.81-147.18L40.73,44.87v266.88h0ZM203.7,177.76L52.34,329.49h407.05l-144.65-151.71-47.69,40.63h0c-3.74,3.2-9.34,3.37-13.3.16l-50.05-40.81h0ZM330.57,164.29l141.7,148.63V43.57l-141.7,120.72h0ZM54.05,28.97l206.1,168.04L457.4,28.97H54.05Z"/>
  </g>
</svg>