<?xml version="1.0" encoding="UTF-8"?>
<svg id="Layer_1" data-name="Layer 1" xmlns="http://www.w3.org/2000/svg" viewBox="0 0 590.13 146.93">
  <g isolation="isolate">
    <g isolation="isolate">
      <g isolation="isolate">
        <path d="M72.24,121.38c5.52,0,5.9-4.07,5.9-15.35v-25.43c0-11.28-.39-15.35-5.9-15.35v-.57h5.13c6.74,0,12.25-1.15,17.9-1.15,19.76,0,29.12,14.09,29.12,29.78s-9.37,29.78-29.12,29.78c-5.65,0-11.16-1.15-17.9-1.15h-5.13v-.57ZM83.6,120.69c3.72,1.03,7.44,1.6,11.61,1.6,15.84,0,23.67-13.34,23.67-28.98s-7.83-28.98-23.67-28.98c-4.17,0-7.89.57-11.61,1.6v54.75Z" fill="#f6f5f2"/>
      </g>
    </g>
    <g isolation="isolate">
      <g isolation="isolate">
        <path d="M155.96,86.51c0-1.09-.71-1.55-1.54-1.55-3.08,0-5,6.01-8.66,6.01-1.8,0-2.12-1.55-1.48-3.04,3.91-9.22,6.29-14.89,10.33-24.4h.64l20.53,48.39c2.82,6.3,4.88,9.45,8.79,9.45v.57h-21.04v-.57c9.04,0,8.72-4.64,6.29-10.42l-7.95-18.73c.26,1.83.38,4.12.38,6.87,0,13.92-7.51,24-20.27,24-7.44,0-11.68-5.21-11.68-11.17,0-14.09,25.66-19.47,25.66-25.43ZM145.83,120.35c10.71,0,15.78-11.74,15.78-21.13,0-4.24-.19-7.39-1.35-10.77l-7.76-18.27-7.38,17.52c-.83,2-.32,2.69.71,2.69,2.95,0,5.32-6.01,8.72-6.01,1.22,0,2.12.74,2.12,2.23,0,7.67-20.91,10.08-20.91,24.22,0,5.38,3.78,9.51,10.07,9.51Z" fill="#f6f5f2"/>
      </g>
    </g>
    <g isolation="isolate">
      <g isolation="isolate">
        <path d="M181.48,64.69h17.32v.57c-5.52,0-5.9,4.07-5.9,15.35v25.43c0,11.11,7.06,16.49,16.17,16.49s15.91-5.44,15.91-16.49v-25.43c0-11.28-.38-15.35-5.9-15.35v-.57h17.32v.57c-5.52,0-5.9,4.07-5.9,15.35v25.43c0,11.45-9.62,17.07-21.43,17.07s-21.68-5.5-21.68-17.07v-25.43c0-11.28-.39-15.35-5.9-15.35v-.57Z" fill="#f6f5f2"/>
        <path d="M250.57,64.69l24.63,46.16,19.24-46.16h11.29v.57c-5.52,0-5.9,4.07-5.9,15.35v25.43c0,11.28.38,15.35,5.9,15.35v.57h-17.32v-.57c5.52,0,5.9-4.07,5.9-15.35v-39.46c-6.93,16.55-13.41,32.3-21.3,51.2h-.58c-10.07-19.24-15.84-30.35-25.6-49.02l-.06,24.57v7.27c0,16.67,5.26,20.79,10.78,20.79v.57h-17.32v-.57c5.52,0,5.9-4.07,5.9-15.35v-25.43c0-11.28-.38-15.35-5.9-15.35v-.57h10.33Z" fill="#f6f5f2"/>
      </g>
    </g>
    <g isolation="isolate">
      <g isolation="isolate">
        <path d="M335.54,86.51c0-1.09-.71-1.55-1.54-1.55-3.08,0-5,6.01-8.66,6.01-1.8,0-2.12-1.55-1.47-3.04,3.91-9.22,6.29-14.89,10.33-24.4h.64l20.53,48.39c2.82,6.3,4.88,9.45,8.79,9.45v.57h-21.04v-.57c9.04,0,8.72-4.64,6.29-10.42l-7.95-18.73c.26,1.83.38,4.12.38,6.87,0,13.92-7.51,24-20.27,24-7.44,0-11.67-5.21-11.67-11.17,0-14.09,25.66-19.47,25.66-25.43ZM325.41,120.35c10.71,0,15.78-11.74,15.78-21.13,0-4.24-.19-7.39-1.35-10.77l-7.76-18.27-7.38,17.52c-.83,2-.32,2.69.71,2.69,2.95,0,5.32-6.01,8.72-6.01,1.22,0,2.12.74,2.12,2.23,0,7.67-20.91,10.08-20.91,24.22,0,5.38,3.78,9.51,10.07,9.51Z" fill="#f6f5f2"/>
      </g>
    </g>
    <g isolation="isolate">
      <g isolation="isolate">
        <path d="M389.17,63.54c7.89,0,13.34,1.15,18.28,2.63v7.67h-.64s-3.91-9.62-17.64-9.62c-11.93,0-18.47,6.47-18.47,12.83,0,15.69,40.54,10.14,40.54,30.18,0,7.96-9.24,15.86-24.05,15.86-8.47,0-15.97-3.84-20.72-6.99v-7.67h.64s8.4,13.63,23.67,13.63c9.37,0,16.74-6.13,16.74-12.48,0-17.24-41.31-12.37-41.31-31.15,0-7.96,8.15-14.89,22.96-14.89Z" fill="#f6f5f2"/>
        <path d="M441.9,63.54c7.89,0,13.34,1.15,18.28,2.63v7.67h-.64s-3.91-9.62-17.64-9.62c-11.93,0-18.47,6.47-18.47,12.83,0,15.69,40.54,10.14,40.54,30.18,0,7.96-9.24,15.86-24.06,15.86-8.47,0-15.97-3.84-20.72-6.99v-7.67h.64s8.4,13.63,23.67,13.63c9.37,0,16.74-6.13,16.74-12.48,0-17.24-41.31-12.37-41.31-31.15,0-7.96,8.15-14.89,22.96-14.89Z" fill="#f6f5f2"/>
        <path d="M471.66,93.32c0-17.18,12.57-29.78,28.55-29.78s28.55,12.6,28.55,29.78-12.57,29.78-28.55,29.78-28.55-12.6-28.55-29.78ZM477.43,93.32c0,16.72,10.39,29.09,22.77,29.09s22.77-12.37,22.77-29.09-9.49-29.09-22.77-29.09-22.77,12.37-22.77,29.09Z" fill="#f6f5f2"/>
        <path d="M545.74,64.69l35.92,48.9v-24.97c0-16.67-5.26-23.36-10.78-23.36v-.57h17.32v.57c-5.52,0-5.9,4.07-5.9,15.35v42.49h-.64l-40.61-55.21v30.12c0,16.66,5.26,23.37,10.78,23.37v.57h-17.32v-.57c5.52,0,5.9-4.07,5.9-15.35v-25.43c0-11.28-.38-15.35-5.9-15.35v-.57h11.23Z" fill="#f6f5f2"/>
      </g>
    </g>
  </g>
  <g isolation="isolate">
    <g isolation="isolate">
      <g isolation="isolate">
        <path d="M3.85,29.78C3.85,12.6,16.42,0,32.39,0s28.55,12.6,28.55,29.78-12.57,29.78-28.55,29.78S3.85,46.96,3.85,29.78ZM9.62,29.78c0,16.72,10.39,29.09,22.77,29.09s22.77-12.37,22.77-29.09S45.67.69,32.39.69,9.62,13.06,9.62,29.78Z" fill="#f6f5f2"/>
        <path d="M68.63,29.78C68.63,12.6,81.21,0,97.18,0,111.87,0,116.87,6.82,116.87,12.03c0,11.91-18.15,16.15-18.15,22.96,0,1.78.64,2.75,1.92,3.72-3.46.69-5.58-2.69-5.58-5.33,0-10.08,18.03-13.46,18.03-21.82,0-6.81-5.2-10.88-15.91-10.88-13.28,0-22.77,12.37-22.77,29.09s10.39,29.09,22.77,29.09c14.24,0,18.28-9.62,18.28-9.62h.71v7.67c-5.13,1.49-10.78,2.63-18.99,2.63-15.97,0-28.55-12.6-28.55-29.78Z" fill="#f6f5f2"/>
        <path d="M120.07,1.15h45.93v7.73h-.64v-.23c0-3.84-8.47-6.93-23.22-6.93h-10.65v24.62c1.92-1.66,4.49-2.63,7.44-2.63,6.35,0,9.88,3.55,15.52,3.55,2.44,0,4.75-1.26,4.75-3.26h.64c0,3.38-3.14,6.3-8.21,6.3-7.83,0-11.1-4.92-15.65-5.04-1.86-.06-3.46.8-4.49,2v30.58h8.21c6.09,0,25.66-.63,25.66-8.88h.64v9.45h-45.93v-.57c5.52,0,5.9-4.07,5.9-15.35v-25.43c0-11.28-.39-15.35-5.9-15.35v-.57Z" fill="#f6f5f2"/>
        <path d="M195.51,22.97c0-1.09-.71-1.55-1.54-1.55-3.08,0-5,6.01-8.66,6.01-1.8,0-2.12-1.55-1.48-3.04,3.91-9.22,6.29-14.89,10.33-24.4h.64l20.53,48.39c2.82,6.3,4.88,9.45,8.79,9.45v.57h-21.04v-.57c9.04,0,8.72-4.64,6.29-10.42l-7.95-18.73c.26,1.83.38,4.12.38,6.87,0,13.92-7.51,23.99-20.27,23.99-7.44,0-11.68-5.21-11.68-11.17,0-14.09,25.66-19.47,25.66-25.43ZM185.37,56.81c10.71,0,15.78-11.74,15.78-21.13,0-4.24-.19-7.39-1.35-10.77l-7.76-18.27-7.38,17.52c-.83,2-.32,2.69.71,2.69,2.95,0,5.32-6.01,8.72-6.01,1.22,0,2.12.74,2.12,2.23,0,7.67-20.91,10.08-20.91,24.22,0,5.38,3.78,9.51,10.07,9.51Z" fill="#f6f5f2"/>
        <path d="M237.26,1.15l35.92,48.91v-24.97c0-16.66-5.26-23.36-10.78-23.36v-.57h17.32v.57c-5.52,0-5.9,4.07-5.9,15.35v42.49h-.64L232.58,4.35v30.12c0,16.66,5.26,23.36,10.78,23.36v.57h-17.32v-.57c5.52,0,5.9-4.07,5.9-15.35v-25.43c0-11.28-.39-15.35-5.9-15.35v-.57h11.23Z" fill="#f6f5f2"/>
        <path d="M283.57,1.15h45.93v7.73h-.64v-.23c0-3.84-8.47-6.93-23.22-6.93h-10.65v24.62c1.92-1.66,4.49-2.63,7.44-2.63,6.35,0,9.88,3.55,15.52,3.55,2.44,0,4.75-1.26,4.75-3.26h.64c0,3.38-3.14,6.3-8.21,6.3-7.83,0-11.1-4.92-15.65-5.04-1.86-.06-3.46.8-4.49,2v30.58h8.21c6.09,0,25.66-.63,25.66-8.88h.64v9.45h-45.93v-.57c5.52,0,5.9-4.07,5.9-15.35v-25.43c0-11.28-.39-15.35-5.9-15.35v-.57Z" fill="#f6f5f2"/>
      </g>
    </g>
  </g>
</svg>